<?xml version="1.0" encoding="utf-8" standalone="no"?>
<!DOCTYPE svg PUBLIC "-//W3C//DTD SVG 1.1//EN"
  "http://www.w3.org/Graphics/SVG/1.1/DTD/svg11.dtd">
<svg xmlns:xlink="http://www.w3.org/1999/xlink" width="720pt" height="360pt" viewBox="0 0 720 360" xmlns="http://www.w3.org/2000/svg" version="1.1">
 <metadata>
  <rdf:RDF xmlns:dc="http://purl.org/dc/elements/1.1/" xmlns:cc="http://creativecommons.org/ns#" xmlns:rdf="http://www.w3.org/1999/02/22-rdf-syntax-ns#">
   <cc:Work>
    <dc:type rdf:resource="http://purl.org/dc/dcmitype/StillImage"/>
    <dc:date>2025-11-08T18:21:51.188158</dc:date>
    <dc:format>image/svg+xml</dc:format>
    <dc:creator>
     <cc:Agent>
      <dc:title>Matplotlib v3.10.6, https://matplotlib.org/</dc:title>
     </cc:Agent>
    </dc:creator>
   </cc:Work>
  </rdf:RDF>
 </metadata>
 <defs>
  <style type="text/css">*{stroke-linejoin: round; stroke-linecap: butt}</style>
 </defs>
 <g id="figure_1">
  <g id="patch_1">
   <path d="M 0 360 
L 720 360 
L 720 0 
L 0 0 
z
" style="fill: #ffffff"/>
  </g>
  <g id="axes_1">
   <g id="patch_2">
    <path d="M 132.05 310.12 
L 695.45513 310.12 
L 695.45513 29.76 
L 132.05 29.76 
z
" style="fill: #ffffff"/>
   </g>
   <g id="patch_3">
    <path d="M 132.05 297.376364 
L 668.626314 297.376364 
L 668.626314 283.599459 
L 132.05 283.599459 
z
" clip-path="url(#pc62995b830)" style="fill: #800080"/>
   </g>
   <g id="patch_4">
    <path d="M 132.05 280.155233 
L 659.623314 280.155233 
L 659.623314 266.378329 
L 132.05 266.378329 
z
" clip-path="url(#pc62995b830)" style="fill: #ffc0cb"/>
   </g>
   <g id="patch_5">
    <path d="M 132.05 262.934103 
L 583.044694 262.934103 
L 583.044694 249.157199 
L 132.05 249.157199 
z
" clip-path="url(#pc62995b830)" style="fill: #800080"/>
   </g>
   <g id="patch_6">
    <path d="M 132.05 245.712973 
L 547.855158 245.712973 
L 547.855158 231.936069 
L 132.05 231.936069 
z
" clip-path="url(#pc62995b830)" style="fill: #ffc0cb"/>
   </g>
   <g id="patch_7">
    <path d="M 132.05 228.491843 
L 536.068695 228.491843 
L 536.068695 214.714939 
L 132.05 214.714939 
z
" clip-path="url(#pc62995b830)" style="fill: #800080"/>
   </g>
   <g id="patch_8">
    <path d="M 132.05 211.270713 
L 535.697179 211.270713 
L 535.697179 197.493808 
L 132.05 197.493808 
z
" clip-path="url(#pc62995b830)" style="fill: #ffc0cb"/>
   </g>
   <g id="patch_9">
    <path d="M 132.05 194.049582 
L 470.269134 194.049582 
L 470.269134 180.272678 
L 132.05 180.272678 
z
" clip-path="url(#pc62995b830)" style="fill: #800080"/>
   </g>
   <g id="patch_10">
    <path d="M 132.05 176.828452 
L 310.387484 176.828452 
L 310.387484 163.051548 
L 132.05 163.051548 
z
" clip-path="url(#pc62995b830)" style="fill: #ffc0cb"/>
   </g>
   <g id="patch_11">
    <path d="M 132.05 159.607322 
L 219.989734 159.607322 
L 219.989734 145.830418 
L 132.05 145.830418 
z
" clip-path="url(#pc62995b830)" style="fill: #800080"/>
   </g>
   <g id="patch_12">
    <path d="M 132.05 142.386192 
L 206.286271 142.386192 
L 206.286271 128.609287 
L 132.05 128.609287 
z
" clip-path="url(#pc62995b830)" style="fill: #ffc0cb"/>
   </g>
   <g id="patch_13">
    <path d="M 132.05 125.165061 
L 179.549336 125.165061 
L 179.549336 111.388157 
L 132.05 111.388157 
z
" clip-path="url(#pc62995b830)" style="fill: #800080"/>
   </g>
   <g id="patch_14">
    <path d="M 132.05 107.943931 
L 149.657768 107.943931 
L 149.657768 94.167027 
L 132.05 94.167027 
z
" clip-path="url(#pc62995b830)" style="fill: #ffc0cb"/>
   </g>
   <g id="patch_15">
    <path d="M 132.05 90.722801 
L 143.279665 90.722801 
L 143.279665 76.945897 
L 132.05 76.945897 
z
" clip-path="url(#pc62995b830)" style="fill: #800080"/>
   </g>
   <g id="patch_16">
    <path d="M 132.05 73.501671 
L 141.964784 73.501671 
L 141.964784 59.724767 
L 132.05 59.724767 
z
" clip-path="url(#pc62995b830)" style="fill: #ffc0cb"/>
   </g>
   <g id="patch_17">
    <path d="M 132.05 56.280541 
L 139.066897 56.280541 
L 139.066897 42.503636 
L 132.05 42.503636 
z
" clip-path="url(#pc62995b830)" style="fill: #800080"/>
   </g>
   <g id="matplotlib.axis_1">
    <g id="xtick_1">
     <g id="line2d_1">
      <defs>
       <path id="m05ce7526df" d="M 0 0 
L 0 3.5 
" style="stroke: #000000; stroke-width: 0.8"/>
      </defs>
      <g>
       <use xlink:href="#m05ce7526df" x="132.05" y="310.12" style="stroke: #000000; stroke-width: 0.8"/>
      </g>
     </g>
     <g id="text_1">
      <!-- 0.00 -->
      <g transform="translate(118.690625 326.238125) scale(0.12 -0.12)">
       <defs>
        <path id="DejaVuSans-30" d="M 2034 4250 
Q 1547 4250 1301 3770 
Q 1056 3291 1056 2328 
Q 1056 1369 1301 889 
Q 1547 409 2034 409 
Q 2525 409 2770 889 
Q 3016 1369 3016 2328 
Q 3016 3291 2770 3770 
Q 2525 4250 2034 4250 
z
M 2034 4750 
Q 2819 4750 3233 4129 
Q 3647 3509 3647 2328 
Q 3647 1150 3233 529 
Q 2819 -91 2034 -91 
Q 1250 -91 836 529 
Q 422 1150 422 2328 
Q 422 3509 836 4129 
Q 1250 4750 2034 4750 
z
" transform="scale(0.015625)"/>
        <path id="DejaVuSans-2e" d="M 684 794 
L 1344 794 
L 1344 0 
L 684 0 
L 684 794 
z
" transform="scale(0.015625)"/>
       </defs>
       <use xlink:href="#DejaVuSans-30"/>
       <use xlink:href="#DejaVuSans-2e" transform="translate(63.623047 0)"/>
       <use xlink:href="#DejaVuSans-30" transform="translate(95.410156 0)"/>
       <use xlink:href="#DejaVuSans-30" transform="translate(159.033203 0)"/>
      </g>
     </g>
    </g>
    <g id="xtick_2">
     <g id="line2d_2">
      <g>
       <use xlink:href="#m05ce7526df" x="202.262329" y="310.12" style="stroke: #000000; stroke-width: 0.8"/>
      </g>
     </g>
     <g id="text_2">
      <!-- 0.02 -->
      <g transform="translate(188.902954 326.238125) scale(0.12 -0.12)">
       <defs>
        <path id="DejaVuSans-32" d="M 1228 531 
L 3431 531 
L 3431 0 
L 469 0 
L 469 531 
Q 828 903 1448 1529 
Q 2069 2156 2228 2338 
Q 2531 2678 2651 2914 
Q 2772 3150 2772 3378 
Q 2772 3750 2511 3984 
Q 2250 4219 1831 4219 
Q 1534 4219 1204 4116 
Q 875 4013 500 3803 
L 500 4441 
Q 881 4594 1212 4672 
Q 1544 4750 1819 4750 
Q 2544 4750 2975 4387 
Q 3406 4025 3406 3419 
Q 3406 3131 3298 2873 
Q 3191 2616 2906 2266 
Q 2828 2175 2409 1742 
Q 1991 1309 1228 531 
z
" transform="scale(0.015625)"/>
       </defs>
       <use xlink:href="#DejaVuSans-30"/>
       <use xlink:href="#DejaVuSans-2e" transform="translate(63.623047 0)"/>
       <use xlink:href="#DejaVuSans-30" transform="translate(95.410156 0)"/>
       <use xlink:href="#DejaVuSans-32" transform="translate(159.033203 0)"/>
      </g>
     </g>
    </g>
    <g id="xtick_3">
     <g id="line2d_3">
      <g>
       <use xlink:href="#m05ce7526df" x="272.474657" y="310.12" style="stroke: #000000; stroke-width: 0.8"/>
      </g>
     </g>
     <g id="text_3">
      <!-- 0.04 -->
      <g transform="translate(259.115282 326.238125) scale(0.12 -0.12)">
       <defs>
        <path id="DejaVuSans-34" d="M 2419 4116 
L 825 1625 
L 2419 1625 
L 2419 4116 
z
M 2253 4666 
L 3047 4666 
L 3047 1625 
L 3713 1625 
L 3713 1100 
L 3047 1100 
L 3047 0 
L 2419 0 
L 2419 1100 
L 313 1100 
L 313 1709 
L 2253 4666 
z
" transform="scale(0.015625)"/>
       </defs>
       <use xlink:href="#DejaVuSans-30"/>
       <use xlink:href="#DejaVuSans-2e" transform="translate(63.623047 0)"/>
       <use xlink:href="#DejaVuSans-30" transform="translate(95.410156 0)"/>
       <use xlink:href="#DejaVuSans-34" transform="translate(159.033203 0)"/>
      </g>
     </g>
    </g>
    <g id="xtick_4">
     <g id="line2d_4">
      <g>
       <use xlink:href="#m05ce7526df" x="342.686986" y="310.12" style="stroke: #000000; stroke-width: 0.8"/>
      </g>
     </g>
     <g id="text_4">
      <!-- 0.06 -->
      <g transform="translate(329.327611 326.238125) scale(0.12 -0.12)">
       <defs>
        <path id="DejaVuSans-36" d="M 2113 2584 
Q 1688 2584 1439 2293 
Q 1191 2003 1191 1497 
Q 1191 994 1439 701 
Q 1688 409 2113 409 
Q 2538 409 2786 701 
Q 3034 994 3034 1497 
Q 3034 2003 2786 2293 
Q 2538 2584 2113 2584 
z
M 3366 4563 
L 3366 3988 
Q 3128 4100 2886 4159 
Q 2644 4219 2406 4219 
Q 1781 4219 1451 3797 
Q 1122 3375 1075 2522 
Q 1259 2794 1537 2939 
Q 1816 3084 2150 3084 
Q 2853 3084 3261 2657 
Q 3669 2231 3669 1497 
Q 3669 778 3244 343 
Q 2819 -91 2113 -91 
Q 1303 -91 875 529 
Q 447 1150 447 2328 
Q 447 3434 972 4092 
Q 1497 4750 2381 4750 
Q 2619 4750 2861 4703 
Q 3103 4656 3366 4563 
z
" transform="scale(0.015625)"/>
       </defs>
       <use xlink:href="#DejaVuSans-30"/>
       <use xlink:href="#DejaVuSans-2e" transform="translate(63.623047 0)"/>
       <use xlink:href="#DejaVuSans-30" transform="translate(95.410156 0)"/>
       <use xlink:href="#DejaVuSans-36" transform="translate(159.033203 0)"/>
      </g>
     </g>
    </g>
    <g id="xtick_5">
     <g id="line2d_5">
      <g>
       <use xlink:href="#m05ce7526df" x="412.899314" y="310.12" style="stroke: #000000; stroke-width: 0.8"/>
      </g>
     </g>
     <g id="text_5">
      <!-- 0.08 -->
      <g transform="translate(399.539939 326.238125) scale(0.12 -0.12)">
       <defs>
        <path id="DejaVuSans-38" d="M 2034 2216 
Q 1584 2216 1326 1975 
Q 1069 1734 1069 1313 
Q 1069 891 1326 650 
Q 1584 409 2034 409 
Q 2484 409 2743 651 
Q 3003 894 3003 1313 
Q 3003 1734 2745 1975 
Q 2488 2216 2034 2216 
z
M 1403 2484 
Q 997 2584 770 2862 
Q 544 3141 544 3541 
Q 544 4100 942 4425 
Q 1341 4750 2034 4750 
Q 2731 4750 3128 4425 
Q 3525 4100 3525 3541 
Q 3525 3141 3298 2862 
Q 3072 2584 2669 2484 
Q 3125 2378 3379 2068 
Q 3634 1759 3634 1313 
Q 3634 634 3220 271 
Q 2806 -91 2034 -91 
Q 1263 -91 848 271 
Q 434 634 434 1313 
Q 434 1759 690 2068 
Q 947 2378 1403 2484 
z
M 1172 3481 
Q 1172 3119 1398 2916 
Q 1625 2713 2034 2713 
Q 2441 2713 2670 2916 
Q 2900 3119 2900 3481 
Q 2900 3844 2670 4047 
Q 2441 4250 2034 4250 
Q 1625 4250 1398 4047 
Q 1172 3844 1172 3481 
z
" transform="scale(0.015625)"/>
       </defs>
       <use xlink:href="#DejaVuSans-30"/>
       <use xlink:href="#DejaVuSans-2e" transform="translate(63.623047 0)"/>
       <use xlink:href="#DejaVuSans-30" transform="translate(95.410156 0)"/>
       <use xlink:href="#DejaVuSans-38" transform="translate(159.033203 0)"/>
      </g>
     </g>
    </g>
    <g id="xtick_6">
     <g id="line2d_6">
      <g>
       <use xlink:href="#m05ce7526df" x="483.111643" y="310.12" style="stroke: #000000; stroke-width: 0.8"/>
      </g>
     </g>
     <g id="text_6">
      <!-- 0.10 -->
      <g transform="translate(469.752268 326.238125) scale(0.12 -0.12)">
       <defs>
        <path id="DejaVuSans-31" d="M 794 531 
L 1825 531 
L 1825 4091 
L 703 3866 
L 703 4441 
L 1819 4666 
L 2450 4666 
L 2450 531 
L 3481 531 
L 3481 0 
L 794 0 
L 794 531 
z
" transform="scale(0.015625)"/>
       </defs>
       <use xlink:href="#DejaVuSans-30"/>
       <use xlink:href="#DejaVuSans-2e" transform="translate(63.623047 0)"/>
       <use xlink:href="#DejaVuSans-31" transform="translate(95.410156 0)"/>
       <use xlink:href="#DejaVuSans-30" transform="translate(159.033203 0)"/>
      </g>
     </g>
    </g>
    <g id="xtick_7">
     <g id="line2d_7">
      <g>
       <use xlink:href="#m05ce7526df" x="553.323971" y="310.12" style="stroke: #000000; stroke-width: 0.8"/>
      </g>
     </g>
     <g id="text_7">
      <!-- 0.12 -->
      <g transform="translate(539.964596 326.238125) scale(0.12 -0.12)">
       <use xlink:href="#DejaVuSans-30"/>
       <use xlink:href="#DejaVuSans-2e" transform="translate(63.623047 0)"/>
       <use xlink:href="#DejaVuSans-31" transform="translate(95.410156 0)"/>
       <use xlink:href="#DejaVuSans-32" transform="translate(159.033203 0)"/>
      </g>
     </g>
    </g>
    <g id="xtick_8">
     <g id="line2d_8">
      <g>
       <use xlink:href="#m05ce7526df" x="623.5363" y="310.12" style="stroke: #000000; stroke-width: 0.8"/>
      </g>
     </g>
     <g id="text_8">
      <!-- 0.14 -->
      <g transform="translate(610.176925 326.238125) scale(0.12 -0.12)">
       <use xlink:href="#DejaVuSans-30"/>
       <use xlink:href="#DejaVuSans-2e" transform="translate(63.623047 0)"/>
       <use xlink:href="#DejaVuSans-31" transform="translate(95.410156 0)"/>
       <use xlink:href="#DejaVuSans-34" transform="translate(159.033203 0)"/>
      </g>
     </g>
    </g>
    <g id="xtick_9">
     <g id="line2d_9">
      <g>
       <use xlink:href="#m05ce7526df" x="693.748628" y="310.12" style="stroke: #000000; stroke-width: 0.8"/>
      </g>
     </g>
     <g id="text_9">
      <!-- 0.16 -->
      <g transform="translate(680.389253 326.238125) scale(0.12 -0.12)">
       <use xlink:href="#DejaVuSans-30"/>
       <use xlink:href="#DejaVuSans-2e" transform="translate(63.623047 0)"/>
       <use xlink:href="#DejaVuSans-31" transform="translate(95.410156 0)"/>
       <use xlink:href="#DejaVuSans-36" transform="translate(159.033203 0)"/>
      </g>
     </g>
    </g>
    <g id="text_10">
     <!-- Importance -->
     <g transform="translate(379.368815 341.851875) scale(0.12 -0.12)">
      <defs>
       <path id="DejaVuSans-49" d="M 628 4666 
L 1259 4666 
L 1259 0 
L 628 0 
L 628 4666 
z
" transform="scale(0.015625)"/>
       <path id="DejaVuSans-6d" d="M 3328 2828 
Q 3544 3216 3844 3400 
Q 4144 3584 4550 3584 
Q 5097 3584 5394 3201 
Q 5691 2819 5691 2113 
L 5691 0 
L 5113 0 
L 5113 2094 
Q 5113 2597 4934 2840 
Q 4756 3084 4391 3084 
Q 3944 3084 3684 2787 
Q 3425 2491 3425 1978 
L 3425 0 
L 2847 0 
L 2847 2094 
Q 2847 2600 2669 2842 
Q 2491 3084 2119 3084 
Q 1678 3084 1418 2786 
Q 1159 2488 1159 1978 
L 1159 0 
L 581 0 
L 581 3500 
L 1159 3500 
L 1159 2956 
Q 1356 3278 1631 3431 
Q 1906 3584 2284 3584 
Q 2666 3584 2933 3390 
Q 3200 3197 3328 2828 
z
" transform="scale(0.015625)"/>
       <path id="DejaVuSans-70" d="M 1159 525 
L 1159 -1331 
L 581 -1331 
L 581 3500 
L 1159 3500 
L 1159 2969 
Q 1341 3281 1617 3432 
Q 1894 3584 2278 3584 
Q 2916 3584 3314 3078 
Q 3713 2572 3713 1747 
Q 3713 922 3314 415 
Q 2916 -91 2278 -91 
Q 1894 -91 1617 61 
Q 1341 213 1159 525 
z
M 3116 1747 
Q 3116 2381 2855 2742 
Q 2594 3103 2138 3103 
Q 1681 3103 1420 2742 
Q 1159 2381 1159 1747 
Q 1159 1113 1420 752 
Q 1681 391 2138 391 
Q 2594 391 2855 752 
Q 3116 1113 3116 1747 
z
" transform="scale(0.015625)"/>
       <path id="DejaVuSans-6f" d="M 1959 3097 
Q 1497 3097 1228 2736 
Q 959 2375 959 1747 
Q 959 1119 1226 758 
Q 1494 397 1959 397 
Q 2419 397 2687 759 
Q 2956 1122 2956 1747 
Q 2956 2369 2687 2733 
Q 2419 3097 1959 3097 
z
M 1959 3584 
Q 2709 3584 3137 3096 
Q 3566 2609 3566 1747 
Q 3566 888 3137 398 
Q 2709 -91 1959 -91 
Q 1206 -91 779 398 
Q 353 888 353 1747 
Q 353 2609 779 3096 
Q 1206 3584 1959 3584 
z
" transform="scale(0.015625)"/>
       <path id="DejaVuSans-72" d="M 2631 2963 
Q 2534 3019 2420 3045 
Q 2306 3072 2169 3072 
Q 1681 3072 1420 2755 
Q 1159 2438 1159 1844 
L 1159 0 
L 581 0 
L 581 3500 
L 1159 3500 
L 1159 2956 
Q 1341 3275 1631 3429 
Q 1922 3584 2338 3584 
Q 2397 3584 2469 3576 
Q 2541 3569 2628 3553 
L 2631 2963 
z
" transform="scale(0.015625)"/>
       <path id="DejaVuSans-74" d="M 1172 4494 
L 1172 3500 
L 2356 3500 
L 2356 3053 
L 1172 3053 
L 1172 1153 
Q 1172 725 1289 603 
Q 1406 481 1766 481 
L 2356 481 
L 2356 0 
L 1766 0 
Q 1100 0 847 248 
Q 594 497 594 1153 
L 594 3053 
L 172 3053 
L 172 3500 
L 594 3500 
L 594 4494 
L 1172 4494 
z
" transform="scale(0.015625)"/>
       <path id="DejaVuSans-61" d="M 2194 1759 
Q 1497 1759 1228 1600 
Q 959 1441 959 1056 
Q 959 750 1161 570 
Q 1363 391 1709 391 
Q 2188 391 2477 730 
Q 2766 1069 2766 1631 
L 2766 1759 
L 2194 1759 
z
M 3341 1997 
L 3341 0 
L 2766 0 
L 2766 531 
Q 2569 213 2275 61 
Q 1981 -91 1556 -91 
Q 1019 -91 701 211 
Q 384 513 384 1019 
Q 384 1609 779 1909 
Q 1175 2209 1959 2209 
L 2766 2209 
L 2766 2266 
Q 2766 2663 2505 2880 
Q 2244 3097 1772 3097 
Q 1472 3097 1187 3025 
Q 903 2953 641 2809 
L 641 3341 
Q 956 3463 1253 3523 
Q 1550 3584 1831 3584 
Q 2591 3584 2966 3190 
Q 3341 2797 3341 1997 
z
" transform="scale(0.015625)"/>
       <path id="DejaVuSans-6e" d="M 3513 2113 
L 3513 0 
L 2938 0 
L 2938 2094 
Q 2938 2591 2744 2837 
Q 2550 3084 2163 3084 
Q 1697 3084 1428 2787 
Q 1159 2491 1159 1978 
L 1159 0 
L 581 0 
L 581 3500 
L 1159 3500 
L 1159 2956 
Q 1366 3272 1645 3428 
Q 1925 3584 2291 3584 
Q 2894 3584 3203 3211 
Q 3513 2838 3513 2113 
z
" transform="scale(0.015625)"/>
       <path id="DejaVuSans-63" d="M 3122 3366 
L 3122 2828 
Q 2878 2963 2633 3030 
Q 2388 3097 2138 3097 
Q 1578 3097 1268 2742 
Q 959 2388 959 1747 
Q 959 1106 1268 751 
Q 1578 397 2138 397 
Q 2388 397 2633 464 
Q 2878 531 3122 666 
L 3122 134 
Q 2881 22 2623 -34 
Q 2366 -91 2075 -91 
Q 1284 -91 818 406 
Q 353 903 353 1747 
Q 353 2603 823 3093 
Q 1294 3584 2113 3584 
Q 2378 3584 2631 3529 
Q 2884 3475 3122 3366 
z
" transform="scale(0.015625)"/>
       <path id="DejaVuSans-65" d="M 3597 1894 
L 3597 1613 
L 953 1613 
Q 991 1019 1311 708 
Q 1631 397 2203 397 
Q 2534 397 2845 478 
Q 3156 559 3463 722 
L 3463 178 
Q 3153 47 2828 -22 
Q 2503 -91 2169 -91 
Q 1331 -91 842 396 
Q 353 884 353 1716 
Q 353 2575 817 3079 
Q 1281 3584 2069 3584 
Q 2775 3584 3186 3129 
Q 3597 2675 3597 1894 
z
M 3022 2063 
Q 3016 2534 2758 2815 
Q 2500 3097 2075 3097 
Q 1594 3097 1305 2825 
Q 1016 2553 972 2059 
L 3022 2063 
z
" transform="scale(0.015625)"/>
      </defs>
      <use xlink:href="#DejaVuSans-49"/>
      <use xlink:href="#DejaVuSans-6d" transform="translate(29.492188 0)"/>
      <use xlink:href="#DejaVuSans-70" transform="translate(126.904297 0)"/>
      <use xlink:href="#DejaVuSans-6f" transform="translate(190.380859 0)"/>
      <use xlink:href="#DejaVuSans-72" transform="translate(251.5625 0)"/>
      <use xlink:href="#DejaVuSans-74" transform="translate(292.675781 0)"/>
      <use xlink:href="#DejaVuSans-61" transform="translate(331.884766 0)"/>
      <use xlink:href="#DejaVuSans-6e" transform="translate(393.164062 0)"/>
      <use xlink:href="#DejaVuSans-63" transform="translate(456.542969 0)"/>
      <use xlink:href="#DejaVuSans-65" transform="translate(511.523438 0)"/>
     </g>
    </g>
   </g>
   <g id="matplotlib.axis_2">
    <g id="ytick_1">
     <g id="line2d_10">
      <defs>
       <path id="mc783c95954" d="M 0 0 
L -3.5 0 
" style="stroke: #000000; stroke-width: 0.8"/>
      </defs>
      <g>
       <use xlink:href="#mc783c95954" x="132.05" y="290.487912" style="stroke: #000000; stroke-width: 0.8"/>
      </g>
     </g>
     <g id="text_11">
      <!-- sysBP -->
      <g transform="translate(89.97625 295.046974) scale(0.12 -0.12)">
       <defs>
        <path id="DejaVuSans-73" d="M 2834 3397 
L 2834 2853 
Q 2591 2978 2328 3040 
Q 2066 3103 1784 3103 
Q 1356 3103 1142 2972 
Q 928 2841 928 2578 
Q 928 2378 1081 2264 
Q 1234 2150 1697 2047 
L 1894 2003 
Q 2506 1872 2764 1633 
Q 3022 1394 3022 966 
Q 3022 478 2636 193 
Q 2250 -91 1575 -91 
Q 1294 -91 989 -36 
Q 684 19 347 128 
L 347 722 
Q 666 556 975 473 
Q 1284 391 1588 391 
Q 1994 391 2212 530 
Q 2431 669 2431 922 
Q 2431 1156 2273 1281 
Q 2116 1406 1581 1522 
L 1381 1569 
Q 847 1681 609 1914 
Q 372 2147 372 2553 
Q 372 3047 722 3315 
Q 1072 3584 1716 3584 
Q 2034 3584 2315 3537 
Q 2597 3491 2834 3397 
z
" transform="scale(0.015625)"/>
        <path id="DejaVuSans-79" d="M 2059 -325 
Q 1816 -950 1584 -1140 
Q 1353 -1331 966 -1331 
L 506 -1331 
L 506 -850 
L 844 -850 
Q 1081 -850 1212 -737 
Q 1344 -625 1503 -206 
L 1606 56 
L 191 3500 
L 800 3500 
L 1894 763 
L 2988 3500 
L 3597 3500 
L 2059 -325 
z
" transform="scale(0.015625)"/>
        <path id="DejaVuSans-42" d="M 1259 2228 
L 1259 519 
L 2272 519 
Q 2781 519 3026 730 
Q 3272 941 3272 1375 
Q 3272 1813 3026 2020 
Q 2781 2228 2272 2228 
L 1259 2228 
z
M 1259 4147 
L 1259 2741 
L 2194 2741 
Q 2656 2741 2882 2914 
Q 3109 3088 3109 3444 
Q 3109 3797 2882 3972 
Q 2656 4147 2194 4147 
L 1259 4147 
z
M 628 4666 
L 2241 4666 
Q 2963 4666 3353 4366 
Q 3744 4066 3744 3513 
Q 3744 3084 3544 2831 
Q 3344 2578 2956 2516 
Q 3422 2416 3680 2098 
Q 3938 1781 3938 1306 
Q 3938 681 3513 340 
Q 3088 0 2303 0 
L 628 0 
L 628 4666 
z
" transform="scale(0.015625)"/>
        <path id="DejaVuSans-50" d="M 1259 4147 
L 1259 2394 
L 2053 2394 
Q 2494 2394 2734 2622 
Q 2975 2850 2975 3272 
Q 2975 3691 2734 3919 
Q 2494 4147 2053 4147 
L 1259 4147 
z
M 628 4666 
L 2053 4666 
Q 2838 4666 3239 4311 
Q 3641 3956 3641 3272 
Q 3641 2581 3239 2228 
Q 2838 1875 2053 1875 
L 1259 1875 
L 1259 0 
L 628 0 
L 628 4666 
z
" transform="scale(0.015625)"/>
       </defs>
       <use xlink:href="#DejaVuSans-73"/>
       <use xlink:href="#DejaVuSans-79" transform="translate(52.099609 0)"/>
       <use xlink:href="#DejaVuSans-73" transform="translate(111.279297 0)"/>
       <use xlink:href="#DejaVuSans-42" transform="translate(163.378906 0)"/>
       <use xlink:href="#DejaVuSans-50" transform="translate(231.982422 0)"/>
      </g>
     </g>
    </g>
    <g id="ytick_2">
     <g id="line2d_11">
      <g>
       <use xlink:href="#mc783c95954" x="132.05" y="273.266781" style="stroke: #000000; stroke-width: 0.8"/>
      </g>
     </g>
     <g id="text_12">
      <!-- totChol -->
      <g transform="translate(81.638125 277.825844) scale(0.12 -0.12)">
       <defs>
        <path id="DejaVuSans-43" d="M 4122 4306 
L 4122 3641 
Q 3803 3938 3442 4084 
Q 3081 4231 2675 4231 
Q 1875 4231 1450 3742 
Q 1025 3253 1025 2328 
Q 1025 1406 1450 917 
Q 1875 428 2675 428 
Q 3081 428 3442 575 
Q 3803 722 4122 1019 
L 4122 359 
Q 3791 134 3420 21 
Q 3050 -91 2638 -91 
Q 1578 -91 968 557 
Q 359 1206 359 2328 
Q 359 3453 968 4101 
Q 1578 4750 2638 4750 
Q 3056 4750 3426 4639 
Q 3797 4528 4122 4306 
z
" transform="scale(0.015625)"/>
        <path id="DejaVuSans-68" d="M 3513 2113 
L 3513 0 
L 2938 0 
L 2938 2094 
Q 2938 2591 2744 2837 
Q 2550 3084 2163 3084 
Q 1697 3084 1428 2787 
Q 1159 2491 1159 1978 
L 1159 0 
L 581 0 
L 581 4863 
L 1159 4863 
L 1159 2956 
Q 1366 3272 1645 3428 
Q 1925 3584 2291 3584 
Q 2894 3584 3203 3211 
Q 3513 2838 3513 2113 
z
" transform="scale(0.015625)"/>
        <path id="DejaVuSans-6c" d="M 603 4863 
L 1178 4863 
L 1178 0 
L 603 0 
L 603 4863 
z
" transform="scale(0.015625)"/>
       </defs>
       <use xlink:href="#DejaVuSans-74"/>
       <use xlink:href="#DejaVuSans-6f" transform="translate(39.208984 0)"/>
       <use xlink:href="#DejaVuSans-74" transform="translate(100.390625 0)"/>
       <use xlink:href="#DejaVuSans-43" transform="translate(139.599609 0)"/>
       <use xlink:href="#DejaVuSans-68" transform="translate(209.423828 0)"/>
       <use xlink:href="#DejaVuSans-6f" transform="translate(272.802734 0)"/>
       <use xlink:href="#DejaVuSans-6c" transform="translate(333.984375 0)"/>
      </g>
     </g>
    </g>
    <g id="ytick_3">
     <g id="line2d_12">
      <g>
       <use xlink:href="#mc783c95954" x="132.05" y="256.045651" style="stroke: #000000; stroke-width: 0.8"/>
      </g>
     </g>
     <g id="text_13">
      <!-- glucose -->
      <g transform="translate(78.9175 260.604714) scale(0.12 -0.12)">
       <defs>
        <path id="DejaVuSans-67" d="M 2906 1791 
Q 2906 2416 2648 2759 
Q 2391 3103 1925 3103 
Q 1463 3103 1205 2759 
Q 947 2416 947 1791 
Q 947 1169 1205 825 
Q 1463 481 1925 481 
Q 2391 481 2648 825 
Q 2906 1169 2906 1791 
z
M 3481 434 
Q 3481 -459 3084 -895 
Q 2688 -1331 1869 -1331 
Q 1566 -1331 1297 -1286 
Q 1028 -1241 775 -1147 
L 775 -588 
Q 1028 -725 1275 -790 
Q 1522 -856 1778 -856 
Q 2344 -856 2625 -561 
Q 2906 -266 2906 331 
L 2906 616 
Q 2728 306 2450 153 
Q 2172 0 1784 0 
Q 1141 0 747 490 
Q 353 981 353 1791 
Q 353 2603 747 3093 
Q 1141 3584 1784 3584 
Q 2172 3584 2450 3431 
Q 2728 3278 2906 2969 
L 2906 3500 
L 3481 3500 
L 3481 434 
z
" transform="scale(0.015625)"/>
        <path id="DejaVuSans-75" d="M 544 1381 
L 544 3500 
L 1119 3500 
L 1119 1403 
Q 1119 906 1312 657 
Q 1506 409 1894 409 
Q 2359 409 2629 706 
Q 2900 1003 2900 1516 
L 2900 3500 
L 3475 3500 
L 3475 0 
L 2900 0 
L 2900 538 
Q 2691 219 2414 64 
Q 2138 -91 1772 -91 
Q 1169 -91 856 284 
Q 544 659 544 1381 
z
M 1991 3584 
L 1991 3584 
z
" transform="scale(0.015625)"/>
       </defs>
       <use xlink:href="#DejaVuSans-67"/>
       <use xlink:href="#DejaVuSans-6c" transform="translate(63.476562 0)"/>
       <use xlink:href="#DejaVuSans-75" transform="translate(91.259766 0)"/>
       <use xlink:href="#DejaVuSans-63" transform="translate(154.638672 0)"/>
       <use xlink:href="#DejaVuSans-6f" transform="translate(209.619141 0)"/>
       <use xlink:href="#DejaVuSans-73" transform="translate(270.800781 0)"/>
       <use xlink:href="#DejaVuSans-65" transform="translate(322.900391 0)"/>
      </g>
     </g>
    </g>
    <g id="ytick_4">
     <g id="line2d_13">
      <g>
       <use xlink:href="#mc783c95954" x="132.05" y="238.824521" style="stroke: #000000; stroke-width: 0.8"/>
      </g>
     </g>
     <g id="text_14">
      <!-- BMI -->
      <g transform="translate(102.923125 243.383583) scale(0.12 -0.12)">
       <defs>
        <path id="DejaVuSans-4d" d="M 628 4666 
L 1569 4666 
L 2759 1491 
L 3956 4666 
L 4897 4666 
L 4897 0 
L 4281 0 
L 4281 4097 
L 3078 897 
L 2444 897 
L 1241 4097 
L 1241 0 
L 628 0 
L 628 4666 
z
" transform="scale(0.015625)"/>
       </defs>
       <use xlink:href="#DejaVuSans-42"/>
       <use xlink:href="#DejaVuSans-4d" transform="translate(68.603516 0)"/>
       <use xlink:href="#DejaVuSans-49" transform="translate(154.882812 0)"/>
      </g>
     </g>
    </g>
    <g id="ytick_5">
     <g id="line2d_14">
      <g>
       <use xlink:href="#mc783c95954" x="132.05" y="221.603391" style="stroke: #000000; stroke-width: 0.8"/>
      </g>
     </g>
     <g id="text_15">
      <!-- diaBP -->
      <g transform="translate(91.275625 226.162453) scale(0.12 -0.12)">
       <defs>
        <path id="DejaVuSans-64" d="M 2906 2969 
L 2906 4863 
L 3481 4863 
L 3481 0 
L 2906 0 
L 2906 525 
Q 2725 213 2448 61 
Q 2172 -91 1784 -91 
Q 1150 -91 751 415 
Q 353 922 353 1747 
Q 353 2572 751 3078 
Q 1150 3584 1784 3584 
Q 2172 3584 2448 3432 
Q 2725 3281 2906 2969 
z
M 947 1747 
Q 947 1113 1208 752 
Q 1469 391 1925 391 
Q 2381 391 2643 752 
Q 2906 1113 2906 1747 
Q 2906 2381 2643 2742 
Q 2381 3103 1925 3103 
Q 1469 3103 1208 2742 
Q 947 2381 947 1747 
z
" transform="scale(0.015625)"/>
        <path id="DejaVuSans-69" d="M 603 3500 
L 1178 3500 
L 1178 0 
L 603 0 
L 603 3500 
z
M 603 4863 
L 1178 4863 
L 1178 4134 
L 603 4134 
L 603 4863 
z
" transform="scale(0.015625)"/>
       </defs>
       <use xlink:href="#DejaVuSans-64"/>
       <use xlink:href="#DejaVuSans-69" transform="translate(63.476562 0)"/>
       <use xlink:href="#DejaVuSans-61" transform="translate(91.259766 0)"/>
       <use xlink:href="#DejaVuSans-42" transform="translate(152.539062 0)"/>
       <use xlink:href="#DejaVuSans-50" transform="translate(221.142578 0)"/>
      </g>
     </g>
    </g>
    <g id="ytick_6">
     <g id="line2d_15">
      <g>
       <use xlink:href="#mc783c95954" x="132.05" y="204.38226" style="stroke: #000000; stroke-width: 0.8"/>
      </g>
     </g>
     <g id="text_16">
      <!-- age -->
      <g transform="translate(102.694375 208.941323) scale(0.12 -0.12)">
       <use xlink:href="#DejaVuSans-61"/>
       <use xlink:href="#DejaVuSans-67" transform="translate(61.279297 0)"/>
       <use xlink:href="#DejaVuSans-65" transform="translate(124.755859 0)"/>
      </g>
     </g>
    </g>
    <g id="ytick_7">
     <g id="line2d_16">
      <g>
       <use xlink:href="#mc783c95954" x="132.05" y="187.16113" style="stroke: #000000; stroke-width: 0.8"/>
      </g>
     </g>
     <g id="text_17">
      <!-- heartRate -->
      <g transform="translate(65.56 191.720193) scale(0.12 -0.12)">
       <defs>
        <path id="DejaVuSans-52" d="M 2841 2188 
Q 3044 2119 3236 1894 
Q 3428 1669 3622 1275 
L 4263 0 
L 3584 0 
L 2988 1197 
Q 2756 1666 2539 1819 
Q 2322 1972 1947 1972 
L 1259 1972 
L 1259 0 
L 628 0 
L 628 4666 
L 2053 4666 
Q 2853 4666 3247 4331 
Q 3641 3997 3641 3322 
Q 3641 2881 3436 2590 
Q 3231 2300 2841 2188 
z
M 1259 4147 
L 1259 2491 
L 2053 2491 
Q 2509 2491 2742 2702 
Q 2975 2913 2975 3322 
Q 2975 3731 2742 3939 
Q 2509 4147 2053 4147 
L 1259 4147 
z
" transform="scale(0.015625)"/>
       </defs>
       <use xlink:href="#DejaVuSans-68"/>
       <use xlink:href="#DejaVuSans-65" transform="translate(63.378906 0)"/>
       <use xlink:href="#DejaVuSans-61" transform="translate(124.902344 0)"/>
       <use xlink:href="#DejaVuSans-72" transform="translate(186.181641 0)"/>
       <use xlink:href="#DejaVuSans-74" transform="translate(227.294922 0)"/>
       <use xlink:href="#DejaVuSans-52" transform="translate(266.503906 0)"/>
       <use xlink:href="#DejaVuSans-61" transform="translate(333.736328 0)"/>
       <use xlink:href="#DejaVuSans-74" transform="translate(395.015625 0)"/>
       <use xlink:href="#DejaVuSans-65" transform="translate(434.224609 0)"/>
      </g>
     </g>
    </g>
    <g id="ytick_8">
     <g id="line2d_17">
      <g>
       <use xlink:href="#mc783c95954" x="132.05" y="169.94" style="stroke: #000000; stroke-width: 0.8"/>
      </g>
     </g>
     <g id="text_18">
      <!-- cigsPerDay -->
      <g transform="translate(58.435 174.499063) scale(0.12 -0.12)">
       <defs>
        <path id="DejaVuSans-44" d="M 1259 4147 
L 1259 519 
L 2022 519 
Q 2988 519 3436 956 
Q 3884 1394 3884 2338 
Q 3884 3275 3436 3711 
Q 2988 4147 2022 4147 
L 1259 4147 
z
M 628 4666 
L 1925 4666 
Q 3281 4666 3915 4102 
Q 4550 3538 4550 2338 
Q 4550 1131 3912 565 
Q 3275 0 1925 0 
L 628 0 
L 628 4666 
z
" transform="scale(0.015625)"/>
       </defs>
       <use xlink:href="#DejaVuSans-63"/>
       <use xlink:href="#DejaVuSans-69" transform="translate(54.980469 0)"/>
       <use xlink:href="#DejaVuSans-67" transform="translate(82.763672 0)"/>
       <use xlink:href="#DejaVuSans-73" transform="translate(146.240234 0)"/>
       <use xlink:href="#DejaVuSans-50" transform="translate(198.339844 0)"/>
       <use xlink:href="#DejaVuSans-65" transform="translate(255.017578 0)"/>
       <use xlink:href="#DejaVuSans-72" transform="translate(316.541016 0)"/>
       <use xlink:href="#DejaVuSans-44" transform="translate(357.654297 0)"/>
       <use xlink:href="#DejaVuSans-61" transform="translate(434.65625 0)"/>
       <use xlink:href="#DejaVuSans-79" transform="translate(495.935547 0)"/>
      </g>
     </g>
    </g>
    <g id="ytick_9">
     <g id="line2d_18">
      <g>
       <use xlink:href="#mc783c95954" x="132.05" y="152.71887" style="stroke: #000000; stroke-width: 0.8"/>
      </g>
     </g>
     <g id="text_19">
      <!-- education -->
      <g transform="translate(65.505625 157.277932) scale(0.12 -0.12)">
       <use xlink:href="#DejaVuSans-65"/>
       <use xlink:href="#DejaVuSans-64" transform="translate(61.523438 0)"/>
       <use xlink:href="#DejaVuSans-75" transform="translate(125 0)"/>
       <use xlink:href="#DejaVuSans-63" transform="translate(188.378906 0)"/>
       <use xlink:href="#DejaVuSans-61" transform="translate(243.359375 0)"/>
       <use xlink:href="#DejaVuSans-74" transform="translate(304.638672 0)"/>
       <use xlink:href="#DejaVuSans-69" transform="translate(343.847656 0)"/>
       <use xlink:href="#DejaVuSans-6f" transform="translate(371.630859 0)"/>
       <use xlink:href="#DejaVuSans-6e" transform="translate(432.8125 0)"/>
      </g>
     </g>
    </g>
    <g id="ytick_10">
     <g id="line2d_19">
      <g>
       <use xlink:href="#mc783c95954" x="132.05" y="135.49774" style="stroke: #000000; stroke-width: 0.8"/>
      </g>
     </g>
     <g id="text_20">
      <!-- male -->
      <g transform="translate(95.29 140.056802) scale(0.12 -0.12)">
       <use xlink:href="#DejaVuSans-6d"/>
       <use xlink:href="#DejaVuSans-61" transform="translate(97.412109 0)"/>
       <use xlink:href="#DejaVuSans-6c" transform="translate(158.691406 0)"/>
       <use xlink:href="#DejaVuSans-65" transform="translate(186.474609 0)"/>
      </g>
     </g>
    </g>
    <g id="ytick_11">
     <g id="line2d_20">
      <g>
       <use xlink:href="#mc783c95954" x="132.05" y="118.276609" style="stroke: #000000; stroke-width: 0.8"/>
      </g>
     </g>
     <g id="text_21">
      <!-- BPMeds -->
      <g transform="translate(77.974375 122.835672) scale(0.12 -0.12)">
       <use xlink:href="#DejaVuSans-42"/>
       <use xlink:href="#DejaVuSans-50" transform="translate(68.603516 0)"/>
       <use xlink:href="#DejaVuSans-4d" transform="translate(128.90625 0)"/>
       <use xlink:href="#DejaVuSans-65" transform="translate(215.185547 0)"/>
       <use xlink:href="#DejaVuSans-64" transform="translate(276.708984 0)"/>
       <use xlink:href="#DejaVuSans-73" transform="translate(340.185547 0)"/>
      </g>
     </g>
    </g>
    <g id="ytick_12">
     <g id="line2d_21">
      <g>
       <use xlink:href="#mc783c95954" x="132.05" y="101.055479" style="stroke: #000000; stroke-width: 0.8"/>
      </g>
     </g>
     <g id="text_22">
      <!-- prevalentHyp -->
      <g transform="translate(44.156875 105.614542) scale(0.12 -0.12)">
       <defs>
        <path id="DejaVuSans-76" d="M 191 3500 
L 800 3500 
L 1894 563 
L 2988 3500 
L 3597 3500 
L 2284 0 
L 1503 0 
L 191 3500 
z
" transform="scale(0.015625)"/>
        <path id="DejaVuSans-48" d="M 628 4666 
L 1259 4666 
L 1259 2753 
L 3553 2753 
L 3553 4666 
L 4184 4666 
L 4184 0 
L 3553 0 
L 3553 2222 
L 1259 2222 
L 1259 0 
L 628 0 
L 628 4666 
z
" transform="scale(0.015625)"/>
       </defs>
       <use xlink:href="#DejaVuSans-70"/>
       <use xlink:href="#DejaVuSans-72" transform="translate(63.476562 0)"/>
       <use xlink:href="#DejaVuSans-65" transform="translate(102.339844 0)"/>
       <use xlink:href="#DejaVuSans-76" transform="translate(163.863281 0)"/>
       <use xlink:href="#DejaVuSans-61" transform="translate(223.042969 0)"/>
       <use xlink:href="#DejaVuSans-6c" transform="translate(284.322266 0)"/>
       <use xlink:href="#DejaVuSans-65" transform="translate(312.105469 0)"/>
       <use xlink:href="#DejaVuSans-6e" transform="translate(373.628906 0)"/>
       <use xlink:href="#DejaVuSans-74" transform="translate(437.007812 0)"/>
       <use xlink:href="#DejaVuSans-48" transform="translate(476.216797 0)"/>
       <use xlink:href="#DejaVuSans-79" transform="translate(551.412109 0)"/>
       <use xlink:href="#DejaVuSans-70" transform="translate(610.591797 0)"/>
      </g>
     </g>
    </g>
    <g id="ytick_13">
     <g id="line2d_22">
      <g>
       <use xlink:href="#mc783c95954" x="132.05" y="83.834349" style="stroke: #000000; stroke-width: 0.8"/>
      </g>
     </g>
     <g id="text_23">
      <!-- diabetes -->
      <g transform="translate(73.403125 88.393411) scale(0.12 -0.12)">
       <defs>
        <path id="DejaVuSans-62" d="M 3116 1747 
Q 3116 2381 2855 2742 
Q 2594 3103 2138 3103 
Q 1681 3103 1420 2742 
Q 1159 2381 1159 1747 
Q 1159 1113 1420 752 
Q 1681 391 2138 391 
Q 2594 391 2855 752 
Q 3116 1113 3116 1747 
z
M 1159 2969 
Q 1341 3281 1617 3432 
Q 1894 3584 2278 3584 
Q 2916 3584 3314 3078 
Q 3713 2572 3713 1747 
Q 3713 922 3314 415 
Q 2916 -91 2278 -91 
Q 1894 -91 1617 61 
Q 1341 213 1159 525 
L 1159 0 
L 581 0 
L 581 4863 
L 1159 4863 
L 1159 2969 
z
" transform="scale(0.015625)"/>
       </defs>
       <use xlink:href="#DejaVuSans-64"/>
       <use xlink:href="#DejaVuSans-69" transform="translate(63.476562 0)"/>
       <use xlink:href="#DejaVuSans-61" transform="translate(91.259766 0)"/>
       <use xlink:href="#DejaVuSans-62" transform="translate(152.539062 0)"/>
       <use xlink:href="#DejaVuSans-65" transform="translate(216.015625 0)"/>
       <use xlink:href="#DejaVuSans-74" transform="translate(277.539062 0)"/>
       <use xlink:href="#DejaVuSans-65" transform="translate(316.748047 0)"/>
       <use xlink:href="#DejaVuSans-73" transform="translate(378.271484 0)"/>
      </g>
     </g>
    </g>
    <g id="ytick_14">
     <g id="line2d_23">
      <g>
       <use xlink:href="#mc783c95954" x="132.05" y="66.613219" style="stroke: #000000; stroke-width: 0.8"/>
      </g>
     </g>
     <g id="text_24">
      <!-- prevalentStroke -->
      <g transform="translate(29.67625 71.172281) scale(0.12 -0.12)">
       <defs>
        <path id="DejaVuSans-53" d="M 3425 4513 
L 3425 3897 
Q 3066 4069 2747 4153 
Q 2428 4238 2131 4238 
Q 1616 4238 1336 4038 
Q 1056 3838 1056 3469 
Q 1056 3159 1242 3001 
Q 1428 2844 1947 2747 
L 2328 2669 
Q 3034 2534 3370 2195 
Q 3706 1856 3706 1288 
Q 3706 609 3251 259 
Q 2797 -91 1919 -91 
Q 1588 -91 1214 -16 
Q 841 59 441 206 
L 441 856 
Q 825 641 1194 531 
Q 1563 422 1919 422 
Q 2459 422 2753 634 
Q 3047 847 3047 1241 
Q 3047 1584 2836 1778 
Q 2625 1972 2144 2069 
L 1759 2144 
Q 1053 2284 737 2584 
Q 422 2884 422 3419 
Q 422 4038 858 4394 
Q 1294 4750 2059 4750 
Q 2388 4750 2728 4690 
Q 3069 4631 3425 4513 
z
" transform="scale(0.015625)"/>
        <path id="DejaVuSans-6b" d="M 581 4863 
L 1159 4863 
L 1159 1991 
L 2875 3500 
L 3609 3500 
L 1753 1863 
L 3688 0 
L 2938 0 
L 1159 1709 
L 1159 0 
L 581 0 
L 581 4863 
z
" transform="scale(0.015625)"/>
       </defs>
       <use xlink:href="#DejaVuSans-70"/>
       <use xlink:href="#DejaVuSans-72" transform="translate(63.476562 0)"/>
       <use xlink:href="#DejaVuSans-65" transform="translate(102.339844 0)"/>
       <use xlink:href="#DejaVuSans-76" transform="translate(163.863281 0)"/>
       <use xlink:href="#DejaVuSans-61" transform="translate(223.042969 0)"/>
       <use xlink:href="#DejaVuSans-6c" transform="translate(284.322266 0)"/>
       <use xlink:href="#DejaVuSans-65" transform="translate(312.105469 0)"/>
       <use xlink:href="#DejaVuSans-6e" transform="translate(373.628906 0)"/>
       <use xlink:href="#DejaVuSans-74" transform="translate(437.007812 0)"/>
       <use xlink:href="#DejaVuSans-53" transform="translate(476.216797 0)"/>
       <use xlink:href="#DejaVuSans-74" transform="translate(539.693359 0)"/>
       <use xlink:href="#DejaVuSans-72" transform="translate(578.902344 0)"/>
       <use xlink:href="#DejaVuSans-6f" transform="translate(617.765625 0)"/>
       <use xlink:href="#DejaVuSans-6b" transform="translate(678.947266 0)"/>
       <use xlink:href="#DejaVuSans-65" transform="translate(733.232422 0)"/>
      </g>
     </g>
    </g>
    <g id="ytick_15">
     <g id="line2d_24">
      <g>
       <use xlink:href="#mc783c95954" x="132.05" y="49.392088" style="stroke: #000000; stroke-width: 0.8"/>
      </g>
     </g>
     <g id="text_25">
      <!-- currentSmoker -->
      <g transform="translate(36.2875 53.951151) scale(0.12 -0.12)">
       <use xlink:href="#DejaVuSans-63"/>
       <use xlink:href="#DejaVuSans-75" transform="translate(54.980469 0)"/>
       <use xlink:href="#DejaVuSans-72" transform="translate(118.359375 0)"/>
       <use xlink:href="#DejaVuSans-72" transform="translate(157.722656 0)"/>
       <use xlink:href="#DejaVuSans-65" transform="translate(196.585938 0)"/>
       <use xlink:href="#DejaVuSans-6e" transform="translate(258.109375 0)"/>
       <use xlink:href="#DejaVuSans-74" transform="translate(321.488281 0)"/>
       <use xlink:href="#DejaVuSans-53" transform="translate(360.697266 0)"/>
       <use xlink:href="#DejaVuSans-6d" transform="translate(424.173828 0)"/>
       <use xlink:href="#DejaVuSans-6f" transform="translate(521.585938 0)"/>
       <use xlink:href="#DejaVuSans-6b" transform="translate(582.767578 0)"/>
       <use xlink:href="#DejaVuSans-65" transform="translate(637.052734 0)"/>
       <use xlink:href="#DejaVuSans-72" transform="translate(698.576172 0)"/>
      </g>
     </g>
    </g>
    <g id="text_26">
     <!-- Input Feature -->
     <g transform="translate(23.180625 210.050938) rotate(-90) scale(0.12 -0.12)">
      <defs>
       <path id="DejaVuSans-20" transform="scale(0.015625)"/>
       <path id="DejaVuSans-46" d="M 628 4666 
L 3309 4666 
L 3309 4134 
L 1259 4134 
L 1259 2759 
L 3109 2759 
L 3109 2228 
L 1259 2228 
L 1259 0 
L 628 0 
L 628 4666 
z
" transform="scale(0.015625)"/>
      </defs>
      <use xlink:href="#DejaVuSans-49"/>
      <use xlink:href="#DejaVuSans-6e" transform="translate(29.492188 0)"/>
      <use xlink:href="#DejaVuSans-70" transform="translate(92.871094 0)"/>
      <use xlink:href="#DejaVuSans-75" transform="translate(156.347656 0)"/>
      <use xlink:href="#DejaVuSans-74" transform="translate(219.726562 0)"/>
      <use xlink:href="#DejaVuSans-20" transform="translate(258.935547 0)"/>
      <use xlink:href="#DejaVuSans-46" transform="translate(290.722656 0)"/>
      <use xlink:href="#DejaVuSans-65" transform="translate(342.742188 0)"/>
      <use xlink:href="#DejaVuSans-61" transform="translate(404.265625 0)"/>
      <use xlink:href="#DejaVuSans-74" transform="translate(465.544922 0)"/>
      <use xlink:href="#DejaVuSans-75" transform="translate(504.753906 0)"/>
      <use xlink:href="#DejaVuSans-72" transform="translate(568.132812 0)"/>
      <use xlink:href="#DejaVuSans-65" transform="translate(606.996094 0)"/>
     </g>
    </g>
   </g>
   <g id="patch_18">
    <path d="M 132.05 310.12 
L 132.05 29.76 
" style="fill: none; stroke: #000000; stroke-width: 0.8; stroke-linejoin: miter; stroke-linecap: square"/>
   </g>
   <g id="patch_19">
    <path d="M 695.45513 310.12 
L 695.45513 29.76 
" style="fill: none; stroke: #000000; stroke-width: 0.8; stroke-linejoin: miter; stroke-linecap: square"/>
   </g>
   <g id="patch_20">
    <path d="M 132.05 310.12 
L 695.45513 310.12 
" style="fill: none; stroke: #000000; stroke-width: 0.8; stroke-linejoin: miter; stroke-linecap: square"/>
   </g>
   <g id="patch_21">
    <path d="M 132.05 29.76 
L 695.45513 29.76 
" style="fill: none; stroke: #000000; stroke-width: 0.8; stroke-linejoin: miter; stroke-linecap: square"/>
   </g>
   <g id="text_27">
    <!-- Which features are most important for fetal health prediction? -->
    <g transform="translate(189.46469 23.76) scale(0.144 -0.144)">
     <defs>
      <path id="DejaVuSans-57" d="M 213 4666 
L 850 4666 
L 1831 722 
L 2809 4666 
L 3519 4666 
L 4500 722 
L 5478 4666 
L 6119 4666 
L 4947 0 
L 4153 0 
L 3169 4050 
L 2175 0 
L 1381 0 
L 213 4666 
z
" transform="scale(0.015625)"/>
      <path id="DejaVuSans-66" d="M 2375 4863 
L 2375 4384 
L 1825 4384 
Q 1516 4384 1395 4259 
Q 1275 4134 1275 3809 
L 1275 3500 
L 2222 3500 
L 2222 3053 
L 1275 3053 
L 1275 0 
L 697 0 
L 697 3053 
L 147 3053 
L 147 3500 
L 697 3500 
L 697 3744 
Q 697 4328 969 4595 
Q 1241 4863 1831 4863 
L 2375 4863 
z
" transform="scale(0.015625)"/>
      <path id="DejaVuSans-3f" d="M 1222 794 
L 1856 794 
L 1856 0 
L 1222 0 
L 1222 794 
z
M 1838 1253 
L 1241 1253 
L 1241 1734 
Q 1241 2050 1328 2253 
Q 1416 2456 1697 2725 
L 1978 3003 
Q 2156 3169 2236 3316 
Q 2316 3463 2316 3616 
Q 2316 3894 2111 4066 
Q 1906 4238 1569 4238 
Q 1322 4238 1042 4128 
Q 763 4019 459 3809 
L 459 4397 
Q 753 4575 1054 4662 
Q 1356 4750 1678 4750 
Q 2253 4750 2601 4447 
Q 2950 4144 2950 3647 
Q 2950 3409 2837 3195 
Q 2725 2981 2444 2713 
L 2169 2444 
Q 2022 2297 1961 2214 
Q 1900 2131 1875 2053 
Q 1856 1988 1847 1894 
Q 1838 1800 1838 1638 
L 1838 1253 
z
" transform="scale(0.015625)"/>
     </defs>
     <use xlink:href="#DejaVuSans-57"/>
     <use xlink:href="#DejaVuSans-68" transform="translate(98.876953 0)"/>
     <use xlink:href="#DejaVuSans-69" transform="translate(162.255859 0)"/>
     <use xlink:href="#DejaVuSans-63" transform="translate(190.039062 0)"/>
     <use xlink:href="#DejaVuSans-68" transform="translate(245.019531 0)"/>
     <use xlink:href="#DejaVuSans-20" transform="translate(308.398438 0)"/>
     <use xlink:href="#DejaVuSans-66" transform="translate(340.185547 0)"/>
     <use xlink:href="#DejaVuSans-65" transform="translate(375.390625 0)"/>
     <use xlink:href="#DejaVuSans-61" transform="translate(436.914062 0)"/>
     <use xlink:href="#DejaVuSans-74" transform="translate(498.193359 0)"/>
     <use xlink:href="#DejaVuSans-75" transform="translate(537.402344 0)"/>
     <use xlink:href="#DejaVuSans-72" transform="translate(600.78125 0)"/>
     <use xlink:href="#DejaVuSans-65" transform="translate(639.644531 0)"/>
     <use xlink:href="#DejaVuSans-73" transform="translate(701.167969 0)"/>
     <use xlink:href="#DejaVuSans-20" transform="translate(753.267578 0)"/>
     <use xlink:href="#DejaVuSans-61" transform="translate(785.054688 0)"/>
     <use xlink:href="#DejaVuSans-72" transform="translate(846.333984 0)"/>
     <use xlink:href="#DejaVuSans-65" transform="translate(885.197266 0)"/>
     <use xlink:href="#DejaVuSans-20" transform="translate(946.720703 0)"/>
     <use xlink:href="#DejaVuSans-6d" transform="translate(978.507812 0)"/>
     <use xlink:href="#DejaVuSans-6f" transform="translate(1075.919922 0)"/>
     <use xlink:href="#DejaVuSans-73" transform="translate(1137.101562 0)"/>
     <use xlink:href="#DejaVuSans-74" transform="translate(1189.201172 0)"/>
     <use xlink:href="#DejaVuSans-20" transform="translate(1228.410156 0)"/>
     <use xlink:href="#DejaVuSans-69" transform="translate(1260.197266 0)"/>
     <use xlink:href="#DejaVuSans-6d" transform="translate(1287.980469 0)"/>
     <use xlink:href="#DejaVuSans-70" transform="translate(1385.392578 0)"/>
     <use xlink:href="#DejaVuSans-6f" transform="translate(1448.869141 0)"/>
     <use xlink:href="#DejaVuSans-72" transform="translate(1510.050781 0)"/>
     <use xlink:href="#DejaVuSans-74" transform="translate(1551.164062 0)"/>
     <use xlink:href="#DejaVuSans-61" transform="translate(1590.373047 0)"/>
     <use xlink:href="#DejaVuSans-6e" transform="translate(1651.652344 0)"/>
     <use xlink:href="#DejaVuSans-74" transform="translate(1715.03125 0)"/>
     <use xlink:href="#DejaVuSans-20" transform="translate(1754.240234 0)"/>
     <use xlink:href="#DejaVuSans-66" transform="translate(1786.027344 0)"/>
     <use xlink:href="#DejaVuSans-6f" transform="translate(1821.232422 0)"/>
     <use xlink:href="#DejaVuSans-72" transform="translate(1882.414062 0)"/>
     <use xlink:href="#DejaVuSans-20" transform="translate(1923.527344 0)"/>
     <use xlink:href="#DejaVuSans-66" transform="translate(1955.314453 0)"/>
     <use xlink:href="#DejaVuSans-65" transform="translate(1990.519531 0)"/>
     <use xlink:href="#DejaVuSans-74" transform="translate(2052.042969 0)"/>
     <use xlink:href="#DejaVuSans-61" transform="translate(2091.251953 0)"/>
     <use xlink:href="#DejaVuSans-6c" transform="translate(2152.53125 0)"/>
     <use xlink:href="#DejaVuSans-20" transform="translate(2180.314453 0)"/>
     <use xlink:href="#DejaVuSans-68" transform="translate(2212.101562 0)"/>
     <use xlink:href="#DejaVuSans-65" transform="translate(2275.480469 0)"/>
     <use xlink:href="#DejaVuSans-61" transform="translate(2337.003906 0)"/>
     <use xlink:href="#DejaVuSans-6c" transform="translate(2398.283203 0)"/>
     <use xlink:href="#DejaVuSans-74" transform="translate(2426.066406 0)"/>
     <use xlink:href="#DejaVuSans-68" transform="translate(2465.275391 0)"/>
     <use xlink:href="#DejaVuSans-20" transform="translate(2528.654297 0)"/>
     <use xlink:href="#DejaVuSans-70" transform="translate(2560.441406 0)"/>
     <use xlink:href="#DejaVuSans-72" transform="translate(2623.917969 0)"/>
     <use xlink:href="#DejaVuSans-65" transform="translate(2662.78125 0)"/>
     <use xlink:href="#DejaVuSans-64" transform="translate(2724.304688 0)"/>
     <use xlink:href="#DejaVuSans-69" transform="translate(2787.78125 0)"/>
     <use xlink:href="#DejaVuSans-63" transform="translate(2815.564453 0)"/>
     <use xlink:href="#DejaVuSans-74" transform="translate(2870.544922 0)"/>
     <use xlink:href="#DejaVuSans-69" transform="translate(2909.753906 0)"/>
     <use xlink:href="#DejaVuSans-6f" transform="translate(2937.537109 0)"/>
     <use xlink:href="#DejaVuSans-6e" transform="translate(2998.71875 0)"/>
     <use xlink:href="#DejaVuSans-3f" transform="translate(3062.097656 0)"/>
    </g>
   </g>
  </g>
 </g>
 <defs>
  <clipPath id="pc62995b830">
   <rect x="132.05" y="29.76" width="563.40513" height="280.36"/>
  </clipPath>
 </defs>
</svg>
